<svg xmlns="http://www.w3.org/2000/svg" version="1.1" viewBox="0 0 662 1920"> <path d="m285.71 1.2176c-4.2998 0.14097-8.7547 2.4523-8.9453 6.2779 0.0522 18.062-0.11764 34.986-0.0508 52.321l-7.1898 0.1484c-1.0492-4.4326-3.0262-8.3943-5.0009-11.535-2.8814-4.5822-6.4191-6.3209-10.816-6.3209-4.3968 0-8.3779 1.9593-11.259 6.5415-2.8814 4.5822-5.7702 10.912-5.7702 17.904 0 6.9922 2.8888 13.324 5.7702 17.906 2.8814 4.5822 6.8624 6.5396 11.259 6.5396 4.3968 0 7.9346-2.178 10.816-6.7602 1.9085-3.0351 3.8145-6.8419 4.8876-11.095l7.4144 0.15231c0.0125 1.0031 0.0203 1.9946 0.0352 3.0032-0.44854 23.214-1.305 35.423-2.7221 52.973l-8.5567 0.17575c-1.0492-4.4326-3.0262-8.3943-5.0008-11.535-2.8814-4.5822-6.4192-6.3189-10.816-6.3189s-8.3779 1.9593-11.259 6.5415c-2.8814 4.5822-5.7683 10.912-5.7683 17.904s2.8869 13.322 5.7683 17.904c2.8814 4.5822 6.8624 6.5415 11.259 6.5415 4.3968 0 7.9346-2.18 10.816-6.7622 1.9085-3.0351 3.8164-6.84 4.8895-11.093l7.5726 0.15426c-0.0809 1.0031-0.1389 1.7073-0.22261 2.7553-1.9843 18.96-6.1281 35.682-11.91 52.51-0.10347 0.33306-0.21562 0.66803-0.32219 1.0017l-9.8338 0.20112c-1.0492-4.4326-3.0262-8.3943-5.0008-11.535-2.8814-4.5822-6.4192-6.3189-10.816-6.3189s-8.3779 1.9574-11.259 6.5396c-2.8814 4.5822-5.7683 10.914-5.7683 17.906 0 6.9922 2.8869 13.322 5.7683 17.904 2.8814 4.5822 6.8624 6.5396 11.259 6.5396 4.3968 0 7.9346-2.178 10.816-6.7602 1.9085-3.0351 3.8164-6.8419 4.8896-11.095l4.9423 0.10154c-3.8112 9.1682-8.2453 18.057-12.263 25.619-6.2048 8.3171-1.1475 13.077 5.4246 17.359 21.268 13.332 36.865 32.333 39.782 64.015l-16.936 896.78c-92.176-26.112-105.17-55.215-122.75-145.77-4.8455-24.952-43.503-19.587-56.773 0.8474-58.074 89.435 13.363 186.48 33.245 255.4 20.833 72.219-47.624 154.13-76.721 198.45-18.227 27.766-39.873 54.46-45.521 108.94-14.143 136.42 52.304 219.85 172.88 264.94 60.564 15.784 158.8 33.896 285.4 4.0928 93.579-22.029 143.64-71.21 179.02-132.98 29.381-51.304 24.025-117.04 2.0445-175.95-29.678-79.533-119.96-143.74-102.29-241.67 7.3312-40.652 40.463-73.188 50.042-113.37 11.314-47.458-47.264-99.903-66.495-67.602-32.832 68.124-120.46 69.172-131.36 63.17l-14.44-902.27v-14.468c5.1324-22.602 9.0525-45.418 43.039-62.93 15.494-13.243-2.686-22.172-8.1759-38.411-0.44559-1.3892-0.87716-2.812-1.3161-4.2178l4.3369-0.0898c1.0731 4.2533 2.981 8.0601 4.8896 11.095 2.8814 4.5822 6.4192 6.7602 10.816 6.7602s8.3779-1.9574 11.259-6.5396c2.8814-4.5822 5.7683-10.912 5.7683-17.904 0-6.9922-2.8869-13.324-5.7683-17.906-2.8814-4.5822-6.8624-6.5396-11.259-6.5396-4.3968 0-7.9346 1.7367-10.816 6.3189-1.9747 3.1402-3.9517 7.1019-5.0008 11.535l-8.256-0.16988c-5.2741-18.479-9.6539-37.408-11.898-53.543-0.17412-0.92418-0.33186-1.8576-0.49403-2.7884l5.9323-0.12107c1.0731 4.2533 2.981 8.0582 4.8896 11.093 2.8814 4.5822 6.4192 6.7622 10.816 6.7622s8.3779-1.9594 11.259-6.5415c2.8814-4.5822 5.7683-10.912 5.7683-17.904s-2.8869-13.322-5.7683-17.904c-2.8814-4.5822-6.8624-6.5415-11.259-6.5415-4.3968 0-7.9346 1.7367-10.816 6.3189-1.9747 3.1402-3.9517 7.1019-5.0009 11.535l-7.7581-0.16013c-2.1369-18.434-2.391-37.214-2.0679-52.988 0.0512-1.0007 0.0807-2.0216 0.11911-3.0345l7.8772-0.12107c1.0731 4.2533 2.9791 8.0601 4.8876 11.095 2.8814 4.5822 6.4192 6.7602 10.816 6.7602s8.3779-1.9574 11.259-6.5396c2.8814-4.5822 5.7702-10.914 5.7702-17.906 0-6.9922-2.8888-13.322-5.7702-17.904-2.8814-4.5822-6.8624-6.5415-11.259-6.5415-4.3968 0-7.9346 1.7387-10.816 6.3209-1.9747 3.1403-3.9517 7.1019-5.0008 11.535l-7.5608-0.11326c-0.0632-9.3031-0.47205-18.559-0.908-26.762 0-6.2776-4.1313-11.407-11.81-8.3185-31.703 12.635-54.785-4.3682-87.524-22.339-1.4761-0.89467-3.3979-1.2787-5.3524-1.2146z" fill-rule="evenodd" fill="#e9e9e9"/> </svg>