<svg xmlns="http://www.w3.org/2000/svg" version="1.0" width="1280.000000pt" height="640.000000pt" viewBox="0 0 1280.000000 640.000000" preserveAspectRatio="xMidYMid meet">
<metadata fill="#e9e9e9">
Created by potrace 1.15, written by Peter Selinger 2001-2017
</metadata>
<g transform="translate(0.000000,640.000000) scale(0.100000,-0.100000)" fill="#e9e9e9" stroke="none">
<path d="M5235 5414 c-160 -21 -298 -53 -447 -100 -179 -58 -305 -113 -625 -272 -282 -140 -417 -197 -558 -234 -77 -20 -113 -23 -255 -23 -195 1 -254 10 -755 121 -581 129 -822 161 -1115 151 -310 -12 -548 -86 -790 -245 -396 -262 -597 -775 -560 -1430 34 -583 283 -1513 507 -1892 133 -225 367 -389 653 -458 162 -39 233 -46 430 -47 227 0 323 17 585 102 332 107 463 178 908 491 190 133 290 195 421 258 l97 47 107 -26 c140 -35 198 -42 207 -27 10 16 -9 33 -77 69 l-58 30 47 7 c76 11 334 -4 528 -31 643 -90 786 -88 990 10 146 70 230 180 230 300 0 114 -55 199 -146 226 -32 10 -64 10 -148 1 -300 -33 -427 0 -565 148 -67 73 -100 141 -121 246 -13 65 -14 94 -6 139 12 64 48 140 91 195 26 33 38 39 92 49 35 6 248 43 473 82 226 38 457 79 515 89 58 10 290 51 515 89 226 39 552 96 725 125 173 30 513 89 755 130 242 42 453 78 470 81 70 13 802 140 1180 205 226 39 525 91 665 115 441 77 534 81 628 30 91 -49 171 -146 218 -263 l17 -44 81 7 c242 21 361 63 621 220 138 84 231 125 280 125 55 0 105 -31 145 -90 70 -102 144 -147 261 -157 109 -9 170 14 251 96 81 83 104 143 95 253 -13 152 -97 252 -236 281 -34 6 -61 15 -61 20 0 4 0 21 0 37 0 22 5 30 18 30 50 0 73 98 32 135 -29 26 -130 27 -159 1 -32 -29 -29 -100 4 -122 17 -11 25 -25 25 -46 0 -27 -2 -29 -32 -23 -18 3 -64 11 -103 18 l-70 13 -3 37 c-3 31 0 37 16 37 42 0 75 73 52 116 -17 31 -70 48 -125 40 -50 -8 -64 -21 -72 -70 -5 -31 -1 -40 26 -65 29 -27 41 -64 24 -74 -5 -3 -42 1 -83 9 -127 23 -120 20 -120 64 0 35 3 40 23 40 34 0 47 19 47 66 0 57 -33 84 -100 84 -65 0 -100 -28 -100 -80 0 -36 20 -70 41 -70 5 0 9 -15 9 -34 l0 -33 -97 18 c-54 10 -104 18 -110 19 -8 0 -13 15 -13 40 0 35 3 40 24 40 30 0 42 15 51 62 6 31 3 41 -19 62 -21 22 -34 26 -85 26 -52 0 -62 -3 -80 -26 -12 -15 -21 -40 -21 -55 0 -28 30 -69 50 -69 13 0 13 -47 0 -55 -5 -3 -52 2 -105 11 l-95 17 0 39 c0 30 4 38 18 38 49 0 71 91 32 130 -16 16 -33 20 -80 20 -74 0 -100 -20 -100 -79 0 -30 6 -44 25 -59 23 -18 36 -72 18 -72 -15 0 -205 38 -208 42 -2 1 -1 15 2 31 3 17 12 27 23 27 47 0 69 91 30 130 -28 28 -139 29 -163 2 -27 -30 -22 -96 8 -120 27 -21 36 -68 11 -59 -7 3 -60 13 -117 22 l-104 17 -105 -101 c-111 -107 -157 -136 -230 -145 -108 -15 -1322 -179 -2485 -336 -1909 -259 -1979 -268 -2288 -310 l-288 -39 -54 20 c-141 53 -225 155 -225 274 0 141 56 264 174 381 100 99 162 131 346 179 294 78 357 104 397 164 29 43 30 119 4 178 -53 115 -192 192 -416 228 -108 18 -206 18 -340 -1z" fill="#e9e9e9"/>
</g>
</svg>